<?xml version="1.0" standalone="no"?>
<!DOCTYPE svg PUBLIC "-//W3C//DTD SVG 20010904//EN"
 "http://www.w3.org/TR/2001/REC-SVG-20010904/DTD/svg10.dtd">
<svg version="1.0" xmlns="http://www.w3.org/2000/svg"
 width="354.000000pt" height="354.000000pt" viewBox="0 0 354.000000 354.000000"
 preserveAspectRatio="xMidYMid meet">
    <g transform="translate(0.000000,354.000000) scale(0.100000,-0.100000)"
    fill="currentColor" stroke="none">
    <path d="M1767 3253 c-11 -21 -16 -71 -22 -228 -10 -292 -30 -350 -140 -408
    -59 -30 -99 -36 -325 -43 -113 -3 -209 -10 -214 -14 -5 -5 -6 -15 -3 -23 4
    -11 45 -15 199 -20 342 -10 420 -45 461 -210 20 -77 26 -282 9 -299 -6 -6 -55
    -17 -109 -24 -125 -17 -240 -54 -323 -104 -36 -22 -81 -48 -100 -59 -70 -38
    -300 -282 -340 -361 -12 -23 -121 -171 -191 -260 -53 -66 -51 -73 58 -220 239
    -324 274 -369 339 -431 75 -72 199 -158 280 -194 85 -38 223 -74 326 -85 233
    -26 497 42 686 177 132 93 198 167 413 463 177 243 171 210 68 352 -275 378
    -311 421 -434 519 -140 112 -299 179 -482 203 -55 7 -105 16 -111 20 -15 9
    -15 82 -1 201 30 262 90 300 489 314 182 6 185 6 188 29 3 22 2 22 -110 22
    -62 0 -165 5 -228 10 -295 23 -336 79 -349 474 -4 137 -10 201 -18 203 -6 2
    -13 0 -16 -4z m-28 -1326 c6 -8 11 -60 12 -122 1 -94 -1 -111 -17 -122 -10 -7
    -25 -13 -33 -13 -21 0 -110 -47 -138 -73 -36 -32 -57 -98 -48 -154 6 -40 15
    -56 58 -98 61 -59 105 -75 204 -75 97 0 152 21 206 79 83 88 73 194 -25 272
    -27 21 -59 39 -69 39 -11 0 -35 7 -55 15 -35 14 -35 14 -32 137 3 123 3 123
    32 126 50 6 172 -28 266 -73 249 -122 345 -341 244 -561 -40 -88 -100 -149
    -200 -205 -107 -59 -163 -77 -280 -90 -279 -33 -554 90 -657 292 -33 66 -51
    158 -42 218 10 73 67 180 126 239 112 111 404 221 448 169z"/>
    </g>
</svg>
