<svg xmlns="http://www.w3.org/2000/svg" viewBox="0 0 501.09 91.1"><path fill="currentColor" d="M43.13,81.87,16.51,69.6l4.91-7.16H54.73V73.05l-.14,4.51Q57,87.78,64.28,92.29L79.41,79.82l-2-2.13-4.25,3.19q-3.72-3.59-4-13l-1.06-45A20.07,20.07,0,0,1,71.05,12,29.2,29.2,0,0,1,74,8.17c1.23-1.42,2.74-3,4.51-4.65l-.27-.26q-8.35,2-15,9.55Q50.49,4,36.55,4.06T13.6,13.34Q4.44,22.76,4.44,34L4.71,37q1,11,14.06,23.09L7,77.56q-4.65,7-4.64,11Q2.32,92,5.24,92c2.12,0,3.18-.92,3.18-2.78a8.24,8.24,0,0,0-.66-2.66,7.87,7.87,0,0,1-.67-2.52,3.73,3.73,0,0,1,1.13-2.72,3.56,3.56,0,0,1,2.59-1.12,12.8,12.8,0,0,1,5.57,1.85L35.22,92M20.36,57.66Q8.69,48.38,8.69,36.83a20.49,20.49,0,0,1,7.43-16.32q6.9-6.1,17.11-6.11A37.38,37.38,0,0,1,47.7,17.59l-3.19,4.78L38,31.79ZM54.2,53.15H28.06l22.42-33h1.06L54.2,24Z" transform="translate(-2.32 -2.95)"/><path fill="currentColor" d="M131,30.1V64.25a2.05,2.05,0,0,0,.17.85,8.79,8.79,0,0,0,2.37,3,2.09,2.09,0,0,0,2.35.2l.94-.54a1,1,0,0,1,1.21.16h0a1,1,0,0,1-.07,1.49L128,77.51a2.09,2.09,0,0,1-2.54.07A15.35,15.35,0,0,1,120.41,72a22,22,0,0,1-1.66-9.42V31.8a2.08,2.08,0,0,0-.71-1.56l-4-3.48a2.06,2.06,0,0,0-2.57-.1L104.2,32a2.05,2.05,0,0,0-.84,1.66V64.77a2,2,0,0,0,.45,1.28l1.92,2.42a2.07,2.07,0,0,1-.25,2.83l-6.76,6a2.06,2.06,0,0,1-2.7,0l-7.08-6a2.06,2.06,0,0,1-.2-3l1.75-1.94A2.08,2.08,0,0,0,91,65.09V31.79A7.21,7.21,0,0,0,89.19,27a2.07,2.07,0,0,0-2.75-.37h0a1,1,0,0,1-1.32-.15l-.06-.07A1,1,0,0,1,85.13,25l9-8.19a2.08,2.08,0,0,1,2.6-.16,15.39,15.39,0,0,1,6.62,9.63,2.05,2.05,0,0,0,3.25,1.2q3.8-2.86,6.89-5.39c2.2-1.78,4.12-3.4,5.78-4.86a2.07,2.07,0,0,1,2.77,0l7.14,6.63c.37.33,1.48,1.42,1.85,1.72" transform="translate(-2.32 -2.95)"/><path fill="currentColor" d="M148.87,20.11a.22.22,0,0,1,.09-.43c5,.23,12.66-.4,16.32-3.68a1,1,0,0,1,1-.21l17.77,5.88a1,1,0,0,0,.94-.17l3.29-2.58.26.53a33.67,33.67,0,0,0-4.47,10.08.84.84,0,0,0,0,.27V64.27a1.25,1.25,0,0,0,.05.32,5.39,5.39,0,0,0,3.26,3.82,1,1,0,0,0,.79-.06l1.42-.71a1,1,0,0,1,1.09.12h0a1,1,0,0,1,0,1.57l-9.93,8.31a1,1,0,0,1-1.16.11,14.77,14.77,0,0,1-7.78-12,1,1,0,0,0-1.64-.71L153.65,78.23H153q-9.42-8.76-9.42-17,0-11.39,11.42-22.42a6.32,6.32,0,0,1,2.81-1.54h0a1.76,1.76,0,0,1,1.17.13l11.27,5.47a1,1,0,0,0,1.46-.91V29.71a1,1,0,0,0-.66-.95Zm22.39,25.6-12.35-6.18a1,1,0,0,0-1.36.43,26.15,26.15,0,0,0-3.37,12.13q0,8.63,7,16a1,1,0,0,0,1.4.07l8.87-7.57a1,1,0,0,0,.35-.77V46.61A1,1,0,0,0,171.26,45.71Z" transform="translate(-2.32 -2.95)"/><path fill="currentColor" d="M237.81,78.06q-6.88-5-7.64-11.9a1,1,0,0,0-1.54-.7l-17,12.11a1,1,0,0,1-1.12,0q-7.78-5.28-7.79-15V28a1,1,0,0,0-.31-.72l-1.54-1.45a1,1,0,0,0-1.18-.12l-1.72,1a1,1,0,0,1-1.23-.17l-.07-.08a1,1,0,0,1,.12-1.43l11.3-8.71a1,1,0,0,1,1.2,0l8.5,6.6a1,1,0,0,1,0,1.54l-2.64,2.12a1,1,0,0,0-.37.76V62.17q0,3.63,4.23,6.07a1,1,0,0,0,1.06-.06l9.83-7a1,1,0,0,0,.41-.8V27.89a1,1,0,0,0-.22-.62l-2.37-3a1,1,0,0,1,.14-1.36L236,16.24a1,1,0,0,1,1.24,0l8.27,6.6a1,1,0,0,1,0,1.5l-2.62,2.26a1,1,0,0,0-.34.74V64.69q0,2,3.45,4a1,1,0,0,0,1,0l1.23-.82a1,1,0,0,1,1.23.13h0a1,1,0,0,1-.07,1.44L239,78A1,1,0,0,1,237.81,78.06Z" transform="translate(-2.32 -2.95)"/><path fill="currentColor" d="M271.34,25.57V62.4a1.22,1.22,0,0,0,.43.93l5.85,4.85a1.19,1.19,0,0,0,1.52,0l2-1.56a1.2,1.2,0,0,1,1.7.2h0a1.2,1.2,0,0,1-.16,1.66l-10.31,8.94a1.22,1.22,0,0,1-1.55,0,61.1,61.1,0,0,0-14.37-8.87,1.21,1.21,0,0,1-.48-1.86,13.57,13.57,0,0,0,2.51-8.28v-33a1.21,1.21,0,0,0-1.21-1.21h-2.14a1.22,1.22,0,0,1-1.21-1.3l0-.19a1.23,1.23,0,0,1,.26-.66L269.08,3.41a1.21,1.21,0,0,1,2.15.74l.1,12.24a1.2,1.2,0,0,0,1.21,1.2h11.12a1.21,1.21,0,0,1,1.21,1.21v4.35a1.21,1.21,0,0,1-1.21,1.21H272.55A1.21,1.21,0,0,0,271.34,25.57Z" transform="translate(-2.32 -2.95)"/><path fill="currentColor" d="M301.67,78a.92.92,0,0,1-1,.09q-8.46-4.74-7.81-13.1L293,62.6V28.3a.9.9,0,0,0-.25-.62l-2.93-3.14a.91.91,0,0,1,.09-1.33l8.48-7a.92.92,0,0,1,1.17,0l8.9,7.4a.93.93,0,0,1,.1,1.32l-2.45,2.74a.94.94,0,0,0-.24.61V64.56a.84.84,0,0,0,0,.27,6.47,6.47,0,0,0,3.18,3.84.94.94,0,0,0,1,0l1.32-.89a.93.93,0,0,1,1.13.08h0a.93.93,0,0,1,0,1.4Z" transform="translate(-2.32 -2.95)"/><path fill="currentColor" d="M357.84,90.44c-.44-.36-1.06-.82-1.85-1.4-.47-.34-1-.73-1.54-1.17a1.78,1.78,0,0,0-2.38.14l-3.18,3.28a1.85,1.85,0,0,1-.14.14,15.18,15.18,0,0,1-4,2.47,1.77,1.77,0,0,1-2.25-2.49,21.94,21.94,0,0,0,3.23-11.19l-.32-12.45a1.76,1.76,0,0,0-2.79-1.39L327.55,77.23a1.77,1.77,0,0,1-2.12,0,17.36,17.36,0,0,1-7.26-14.61V26.63a1.76,1.76,0,0,1,1.3-1.69,44.36,44.36,0,0,0,16.24-8.32,1.77,1.77,0,0,1,2.15-.1,66,66,0,0,0,20.92,10.15,1.75,1.75,0,0,1,.94,2.79L358.48,31a1.79,1.79,0,0,0-.37,1.09V80.48a16.24,16.24,0,0,0,2.22,7.64,1.76,1.76,0,0,1-2.43,2.35ZM344.57,32.66l-11.86-5.12a1.77,1.77,0,0,0-2.47,1.63v33c0,2.27,1.24,4.18,3.71,5.76a1.8,1.8,0,0,0,2-.06l9-6.49a1.81,1.81,0,0,0,.73-1.43V34.28A1.75,1.75,0,0,0,344.57,32.66Z" transform="translate(-2.32 -2.95)"/><path fill="currentColor" d="M409.1,78.06q-6.89-5-7.65-11.9a1,1,0,0,0-1.53-.7l-17,12.11a1,1,0,0,1-1.12,0q-7.8-5.28-7.79-15V28a1,1,0,0,0-.31-.72l-1.54-1.45a1,1,0,0,0-1.18-.12l-1.72,1a1,1,0,0,1-1.24-.17l-.06-.08A1,1,0,0,1,368.1,25l11.3-8.71a1,1,0,0,1,1.2,0l8.5,6.6a1,1,0,0,1,0,1.54l-2.64,2.12a1,1,0,0,0-.37.76V62.17q0,3.63,4.23,6.07a1,1,0,0,0,1.06-.06l9.83-7a1,1,0,0,0,.41-.8V27.89a1,1,0,0,0-.22-.62l-2.37-3a1,1,0,0,1,.14-1.36l8.07-6.71a1,1,0,0,1,1.24,0l8.27,6.6a1,1,0,0,1,0,1.5l-2.62,2.26a1,1,0,0,0-.34.74V64.69q0,2,3.45,4a1,1,0,0,0,1,0l1.22-.82a1,1,0,0,1,1.24.13h0a1,1,0,0,1-.07,1.44L410.3,78A1,1,0,0,1,409.1,78.06Z" transform="translate(-2.32 -2.95)"/><path fill="currentColor" d="M470.5,92l18.84-10a12.8,12.8,0,0,1,5.58-1.85,3.54,3.54,0,0,1,2.58,1.12,3.69,3.69,0,0,1,1.13,2.72,8.06,8.06,0,0,1-.66,2.52,8.31,8.31,0,0,0-.67,2.66c0,1.86,1.06,2.78,3.19,2.78,1.94,0,2.92-1.15,2.92-3.45q0-4-4.65-11L487,60.05Q500,48,501,37l.26-2.92q0-11.28-9.15-20.7t-23-9.28q-13.92,0-26.66,8.75-6.64-7.56-15-9.55l-.26.26c1.77,1.69,3.27,3.23,4.51,4.65A29.2,29.2,0,0,1,434.68,12,20.24,20.24,0,0,1,437.6,22.9l-1.07,45q-.25,9.42-4,13l-4.24-3.19-2,2.13,15.12,12.47q7.31-4.52,9.69-14.73L451,73.05V62.44h33.3l4.91,7.16L462.59,81.87m5.13-50.08-6.51-9.42L458,17.59a37.3,37.3,0,0,1,14.46-3.19q10.22,0,17.12,6.11A20.52,20.52,0,0,1,497,36.83q0,11.54-11.68,20.83ZM451.53,24l2.65-3.85h1.06l22.43,33H451.53Z" transform="translate(-2.32 -2.95)"/></svg>